<svg width="91" height="42" viewBox="0 0 91 42" fill="none" xmlns="http://www.w3.org/2000/svg">
<path d="M15.4489 21.9705C16.0343 21.5326 16.6613 21.1186 17.3299 20.7286C17.9984 20.3387 18.667 19.9487 19.3355 19.5587C20.0179 19.1767 20.6726 18.7788 21.2996 18.3648C21.9405 17.9588 22.512 17.5129 23.0143 17.0269C22.6109 16.7016 22.1518 16.4088 21.6369 16.1485C21.1221 15.8883 20.651 15.6163 20.2236 15.3325C19.6926 15.5802 19.1893 15.8439 18.7138 16.1236C18.2521 16.4113 17.7904 16.699 17.3287 16.9867C16.8808 17.2824 16.4231 17.5632 15.9556 17.829C15.488 18.0948 15.0007 18.3308 14.4937 18.5369C14.45 18.5486 14.4023 18.5673 14.3506 18.5929C14.3208 18.6126 14.3098 18.6155 14.3178 18.6016C14.7461 17.7958 15.2192 16.9604 15.737 16.0955C16.2549 15.2305 16.728 14.3951 17.1563 13.5893C16.7128 13.3333 16.2527 13.0584 15.7757 12.7645C15.3206 12.4648 14.8604 12.1899 14.3951 11.9398C13.009 14.3726 11.5783 16.7706 10.1032 19.1336C8.64991 21.4907 7.29069 23.893 6.02555 26.3403C6.18168 26.4859 6.38338 26.6485 6.63065 26.8282C6.89178 27.0159 7.16784 27.1938 7.45882 27.3618C7.74981 27.5298 8.03494 27.6759 8.31421 27.8002C8.58548 27.9383 8.83411 28.0357 9.0601 28.0923C9.2841 27.7043 9.52117 27.2777 9.77131 26.8124C10.0353 26.3552 10.2964 25.887 10.5545 25.4079C10.8127 24.9287 11.0668 24.4565 11.317 23.9913C11.589 23.5202 11.8479 23.0877 12.0937 22.6939C12.0914 23.2098 12.0612 23.7743 12.0029 24.3873C11.9446 25.0003 11.8823 25.6202 11.816 26.247C11.7635 26.8818 11.726 27.5068 11.7034 28.1219C11.6888 28.7232 11.731 29.2741 11.83 29.7746C12.2654 30.0445 12.7315 30.3413 13.2282 30.665C13.7387 30.9967 14.2437 31.2421 14.7431 31.4011L15.4489 21.9705Z" fill="white"/>
<path d="M29.464 10.448H45.032C45.6294 10.448 46.068 10.5227 46.348 10.672C46.628 10.8027 46.8147 11.0173 46.908 11.316C47.0014 11.6147 47.048 12.0067 47.048 12.492C47.048 12.9773 47.0014 13.3693 46.908 13.668C46.8147 13.948 46.656 14.144 46.432 14.256C46.096 14.424 45.62 14.508 45.004 14.508H39.656V28.592C39.656 29.0213 39.6374 29.3387 39.6 29.544C39.5814 29.7493 39.4974 29.992 39.348 30.272C39.2174 30.5333 38.9747 30.72 38.62 30.832C38.2654 30.944 37.7987 31 37.22 31C36.6414 31 36.1747 30.944 35.82 30.832C35.484 30.72 35.2414 30.5333 35.092 30.272C34.9614 29.992 34.8774 29.7493 34.84 29.544C34.8214 29.32 34.812 28.9933 34.812 28.564V14.508H29.436C28.8387 14.508 28.4 14.4427 28.12 14.312C27.84 14.1627 27.6534 13.9387 27.56 13.64C27.4667 13.3413 27.42 12.9493 27.42 12.464C27.42 11.9787 27.4667 11.596 27.56 11.316C27.6534 11.0173 27.812 10.812 28.036 10.7C28.372 10.532 28.848 10.448 29.464 10.448ZM64.3085 27.528C64.5885 28.2 64.7285 28.6853 64.7285 28.984C64.7285 29.6933 64.1498 30.2907 62.9925 30.776C62.3952 31.0373 61.9098 31.168 61.5365 31.168C61.1818 31.168 60.8832 31.084 60.6405 30.916C60.4165 30.7293 60.2485 30.5427 60.1365 30.356C59.9498 30.0013 59.2218 28.312 57.9525 25.288L57.0845 25.344H53.5565V28.508C53.5565 28.9373 53.5378 29.264 53.5005 29.488C53.4818 29.6933 53.3978 29.936 53.2485 30.216C52.9872 30.72 52.2592 30.972 51.0645 30.972C49.7578 30.972 48.9925 30.6267 48.7685 29.936C48.6565 29.6187 48.6005 29.1333 48.6005 28.48V12.94C48.6005 12.5107 48.6098 12.1933 48.6285 11.988C48.6658 11.764 48.7592 11.512 48.9085 11.232C49.1698 10.728 49.8978 10.476 51.0925 10.476H57.1405C58.7832 10.476 60.3792 11.0733 61.9285 12.268C62.6752 12.8467 63.2912 13.6307 63.7765 14.62C64.2618 15.6093 64.5045 16.7107 64.5045 17.924C64.5045 20.0333 63.8045 21.7693 62.4045 23.132C62.8152 24.1213 63.4498 25.5867 64.3085 27.528ZM53.5565 20.388H57.1405C57.6818 20.388 58.2232 20.1827 58.7645 19.772C59.3058 19.3613 59.5765 18.7453 59.5765 17.924C59.5765 17.1027 59.3058 16.4867 58.7645 16.076C58.2232 15.6467 57.6632 15.432 57.0845 15.432H53.5565V20.388ZM66.2646 12.94C66.2646 12.5107 66.2739 12.1933 66.2926 11.988C66.3299 11.764 66.4232 11.512 66.5726 11.232C66.8339 10.728 67.5619 10.476 68.7566 10.476C70.0632 10.476 70.8379 10.8213 71.0806 11.512C71.1739 11.8293 71.2206 12.3147 71.2206 12.968V28.536C71.2206 28.984 71.2019 29.3107 71.1646 29.516C71.1459 29.7213 71.0619 29.964 70.9126 30.244C70.6512 30.748 69.9232 31 68.7286 31C67.4219 31 66.6566 30.6453 66.4326 29.936C66.3206 29.6373 66.2646 29.1613 66.2646 28.508V12.94ZM88.604 14.62C89.0893 15.6093 89.332 16.7107 89.332 17.924C89.332 19.1373 89.0893 20.2387 88.604 21.228C88.1187 22.1987 87.4933 22.9733 86.728 23.552C85.1787 24.7467 83.5733 25.344 81.912 25.344H78.412V28.508C78.412 28.9373 78.3933 29.264 78.356 29.488C78.3373 29.6933 78.2533 29.936 78.104 30.216C77.8427 30.72 77.1147 30.972 75.92 30.972C74.6133 30.972 73.848 30.6267 73.624 29.936C73.512 29.6187 73.456 29.1333 73.456 28.48V12.94C73.456 12.5107 73.4653 12.1933 73.484 11.988C73.5213 11.764 73.6146 11.512 73.764 11.232C74.0253 10.728 74.7533 10.476 75.948 10.476H81.94C83.5827 10.476 85.1787 11.0733 86.728 12.268C87.4933 12.8467 88.1187 13.6307 88.604 14.62ZM81.94 20.388C82.5 20.388 83.0507 20.1827 83.592 19.772C84.1333 19.3613 84.404 18.7453 84.404 17.924C84.404 17.1027 84.1333 16.4867 83.592 16.076C83.0507 15.6467 82.4907 15.432 81.912 15.432H78.412V20.388H81.94Z" fill="white"/>
<path fill-rule="evenodd" clip-rule="evenodd" d="M14.0001 10C7.92493 10 3.00006 14.9249 3.00006 21C3.00006 27.0751 7.92493 32 14.0001 32H23.0001C24.1046 32 25.0001 31.1046 25.0001 30V21C25.0001 14.9249 20.0752 10 14.0001 10ZM14.0001 29C18.4183 29 22.0001 25.4183 22.0001 21C22.0001 16.5817 18.4183 13 14.0001 13C9.58178 13 6.00006 16.5817 6.00006 21C6.00006 25.4183 9.58178 29 14.0001 29Z" fill="white"/>
</svg>
