<svg width="91" height="42" viewBox="0 0 91 42" fill="none" xmlns="http://www.w3.org/2000/svg">
<path d="M15.3771 21.9705C15.9625 21.5326 16.5895 21.1186 17.2581 20.7286C17.9266 20.3387 18.5952 19.9487 19.2637 19.5587C19.9461 19.1767 20.6008 18.7788 21.2278 18.3648C21.8687 17.9588 22.4402 17.5129 22.9425 17.0269C22.5391 16.7016 22.08 16.4088 21.5651 16.1485C21.0503 15.8883 20.5792 15.6163 20.1518 15.3325C19.6208 15.5802 19.1175 15.8439 18.642 16.1236C18.1803 16.4113 17.7186 16.699 17.2569 16.9867C16.809 17.2824 16.3513 17.5632 15.8838 17.829C15.4162 18.0948 14.9289 18.3308 14.4219 18.5369C14.3782 18.5486 14.3305 18.5673 14.2788 18.5929C14.2489 18.6126 14.238 18.6155 14.246 18.6016C14.6743 17.7958 15.1474 16.9604 15.6652 16.0955C16.1831 15.2305 16.6562 14.3951 17.0844 13.5893C16.641 13.3333 16.1809 13.0584 15.7039 12.7645C15.2488 12.4648 14.7886 12.1899 14.3233 11.9398C12.9372 14.3726 11.5065 16.7706 10.0314 19.1336C8.5781 21.4907 7.21889 23.893 5.95374 26.3403C6.10987 26.4859 6.31157 26.6485 6.55885 26.8282C6.81997 27.0159 7.09603 27.1938 7.38701 27.3618C7.678 27.5298 7.96313 27.6759 8.2424 27.8002C8.51367 27.9383 8.7623 28.0357 8.98829 28.0923C9.21229 27.7043 9.44936 27.2777 9.69951 26.8124C9.96351 26.3552 10.2246 25.887 10.4827 25.4079C10.7409 24.9287 10.995 24.4565 11.2452 23.9913C11.5172 23.5202 11.7761 23.0877 12.0219 22.6939C12.0196 23.2098 11.9893 23.7743 11.931 24.3873C11.8727 25.0003 11.8105 25.6202 11.7442 26.247C11.6917 26.8818 11.6542 27.5068 11.6316 28.1219C11.617 28.7232 11.6592 29.2741 11.7582 29.7746C12.1936 30.0445 12.6597 30.3413 13.1564 30.665C13.6669 30.9967 14.1719 31.2421 14.6713 31.4011L15.3771 21.9705Z" fill="#FF8E4D"/>
<path d="M29.3922 10.448H44.9602C45.5576 10.448 45.9962 10.5227 46.2762 10.672C46.5562 10.8027 46.7429 11.0173 46.8362 11.316C46.9296 11.6147 46.9762 12.0067 46.9762 12.492C46.9762 12.9773 46.9296 13.3693 46.8362 13.668C46.7429 13.948 46.5842 14.144 46.3602 14.256C46.0242 14.424 45.5482 14.508 44.9322 14.508H39.5842V28.592C39.5842 29.0213 39.5656 29.3387 39.5282 29.544C39.5096 29.7493 39.4256 29.992 39.2762 30.272C39.1456 30.5333 38.9029 30.72 38.5482 30.832C38.1936 30.944 37.7269 31 37.1482 31C36.5696 31 36.1029 30.944 35.7482 30.832C35.4122 30.72 35.1696 30.5333 35.0202 30.272C34.8896 29.992 34.8056 29.7493 34.7682 29.544C34.7496 29.32 34.7402 28.9933 34.7402 28.564V14.508H29.3642C28.7669 14.508 28.3282 14.4427 28.0482 14.312C27.7682 14.1627 27.5816 13.9387 27.4882 13.64C27.3949 13.3413 27.3482 12.9493 27.3482 12.464C27.3482 11.9787 27.3949 11.596 27.4882 11.316C27.5816 11.0173 27.7402 10.812 27.9642 10.7C28.3002 10.532 28.7762 10.448 29.3922 10.448ZM64.2367 27.528C64.5167 28.2 64.6567 28.6853 64.6567 28.984C64.6567 29.6933 64.078 30.2907 62.9207 30.776C62.3234 31.0373 61.838 31.168 61.4647 31.168C61.11 31.168 60.8114 31.084 60.5687 30.916C60.3447 30.7293 60.1767 30.5427 60.0647 30.356C59.878 30.0013 59.15 28.312 57.8807 25.288L57.0127 25.344H53.4847V28.508C53.4847 28.9373 53.466 29.264 53.4287 29.488C53.41 29.6933 53.326 29.936 53.1767 30.216C52.9154 30.72 52.1874 30.972 50.9927 30.972C49.686 30.972 48.9207 30.6267 48.6967 29.936C48.5847 29.6187 48.5287 29.1333 48.5287 28.48V12.94C48.5287 12.5107 48.538 12.1933 48.5567 11.988C48.594 11.764 48.6874 11.512 48.8367 11.232C49.098 10.728 49.826 10.476 51.0207 10.476H57.0687C58.7114 10.476 60.3074 11.0733 61.8567 12.268C62.6034 12.8467 63.2194 13.6307 63.7047 14.62C64.19 15.6093 64.4327 16.7107 64.4327 17.924C64.4327 20.0333 63.7327 21.7693 62.3327 23.132C62.7434 24.1213 63.378 25.5867 64.2367 27.528ZM53.4847 20.388H57.0687C57.61 20.388 58.1514 20.1827 58.6927 19.772C59.234 19.3613 59.5047 18.7453 59.5047 17.924C59.5047 17.1027 59.234 16.4867 58.6927 16.076C58.1514 15.6467 57.5914 15.432 57.0127 15.432H53.4847V20.388ZM66.1928 12.94C66.1928 12.5107 66.2021 12.1933 66.2208 11.988C66.2581 11.764 66.3514 11.512 66.5008 11.232C66.7621 10.728 67.4901 10.476 68.6848 10.476C69.9914 10.476 70.7661 10.8213 71.0088 11.512C71.1021 11.8293 71.1488 12.3147 71.1488 12.968V28.536C71.1488 28.984 71.1301 29.3107 71.0928 29.516C71.0741 29.7213 70.9901 29.964 70.8408 30.244C70.5794 30.748 69.8514 31 68.6568 31C67.3501 31 66.5848 30.6453 66.3608 29.936C66.2488 29.6373 66.1928 29.1613 66.1928 28.508V12.94ZM88.5322 14.62C89.0175 15.6093 89.2602 16.7107 89.2602 17.924C89.2602 19.1373 89.0175 20.2387 88.5322 21.228C88.0468 22.1987 87.4215 22.9733 86.6562 23.552C85.1068 24.7467 83.5015 25.344 81.8402 25.344H78.3402V28.508C78.3402 28.9373 78.3215 29.264 78.2842 29.488C78.2655 29.6933 78.1815 29.936 78.0322 30.216C77.7708 30.72 77.0428 30.972 75.8482 30.972C74.5415 30.972 73.7762 30.6267 73.5522 29.936C73.4402 29.6187 73.3842 29.1333 73.3842 28.48V12.94C73.3842 12.5107 73.3935 12.1933 73.4122 11.988C73.4495 11.764 73.5428 11.512 73.6922 11.232C73.9535 10.728 74.6815 10.476 75.8762 10.476H81.8682C83.5108 10.476 85.1068 11.0733 86.6562 12.268C87.4215 12.8467 88.0468 13.6307 88.5322 14.62ZM81.8682 20.388C82.4282 20.388 82.9788 20.1827 83.5202 19.772C84.0615 19.3613 84.3322 18.7453 84.3322 17.924C84.3322 17.1027 84.0615 16.4867 83.5202 16.076C82.9788 15.6467 82.4188 15.432 81.8402 15.432H78.3402V20.388H81.8682Z" fill="#397AF3"/>
<path fill-rule="evenodd" clip-rule="evenodd" d="M13.9282 10C7.85311 10 2.92825 14.9249 2.92825 21C2.92825 27.0751 7.85311 32 13.9282 32H22.9282C24.0328 32 24.9282 31.1046 24.9282 30V21C24.9282 14.9249 20.0034 10 13.9282 10ZM13.9282 29C18.3465 29 21.9282 25.4183 21.9282 21C21.9282 16.5817 18.3465 13 13.9282 13C9.50997 13 5.92825 16.5817 5.92825 21C5.92825 25.4183 9.50997 29 13.9282 29Z" fill="#FF8E4D"/>
</svg>
